Coordinates
version=1
nRows=41
nColumns=38
inDegrees=no

Units are S.I. units (second, meters, Newtons, ...)
If the header above contains a line with 'inDegrees', this indicates whether rotational values are in degrees (yes) or radians (no).

endheader
time	pelvis_tilt	pelvis_list	pelvis_rotation	pelvis_tx	pelvis_ty	pelvis_tz	hip_flexion_r	hip_adduction_r	hip_rotation_r	knee_angle_r	ankle_angle_r	subtalar_angle_r	mtp_angle_r	hip_flexion_l	hip_adduction_l	hip_rotation_l	knee_angle_l	ankle_angle_l	subtalar_angle_l	mtp_angle_l	lumbar_extension	lumbar_bending	lumbar_rotation	arm_flex_r	arm_add_r	arm_rot_r	elbow_flex_r	pro_sup_r	wrist_flex_r	wrist_dev_r	arm_flex_l	arm_add_l	arm_rot_l	elbow_flex_l	pro_sup_l	wrist_flex_l	wrist_dev_l
0.68	2.45906	1.46812	-0.85419	0.817003	0.0346377	1.00719	-0.148913	0.0741943	-0.329082	0.261906	0.201202	0	0	0.427143	-0.15201	-0.173932	0.618064	0.048908	0	0	-0.359073	0.040794	0.0477959	0.062451	-0.178247	0.0670181	0.36071	1.37154	0	0	0.0980809	-0.276488	0.37746	0.37913	1.22761	0	0
0.69	2.41112	1.44839	-0.808163	0.816259	0.0431278	1.00766	-0.176875	0.0917966	-0.337003	0.247755	0.195633	0	0	0.406726	-0.157068	-0.155238	0.569004	0.0495016	0	0	-0.371345	0.0598051	0.0550094	0.0633161	-0.182956	0.05965	0.362027	1.38733	0	0	0.0984105	-0.267807	0.352946	0.374512	1.26095	0	0
0.7	2.42803	1.45207	-0.826147	0.815711	0.0510188	1.00669	-0.184233	0.0866155	-0.336473	0.2482	0.201199	0	0	0.404104	-0.149617	-0.167871	0.531683	0.0436853	0	0	-0.370158	0.0548226	0.0549306	0.0623253	-0.183165	0.0622104	0.364381	1.3843	0	0	0.0967718	-0.270856	0.360228	0.380582	1.24613	0	0
0.71	2.48046	1.47526	-0.881589	0.81514	0.059244	1.00357	-0.172836	0.064183	-0.325963	0.262033	0.219603	0	0	0.413297	-0.125253	-0.182563	0.494938	0.0371505	0	0	-0.352266	0.0326888	0.0511787	0.0578112	-0.179856	0.0615719	0.365438	1.38637	0	0	0.0910245	-0.27582	0.357003	0.386767	1.24863	0	0
0.72	2.52696	1.48187	-0.930919	0.814445	0.0672911	1.00239	-0.176202	0.0528672	-0.329457	0.269686	0.230669	0	0	0.409261	-0.113496	-0.192673	0.456346	0.0275664	0	0	-0.349556	0.0237449	0.0512439	0.055719	-0.182401	0.0849255	0.370556	1.35588	0	0	0.0877724	-0.279461	0.363774	0.395341	1.23645	0	0
0.73	2.54368	1.48533	-0.950327	0.813739	0.0755984	1.00121	-0.182597	0.047737	-0.327076	0.271658	0.236357	0	0	0.405343	-0.106277	-0.200702	0.421808	0.0225259	0	0	-0.347142	0.019488	0.0530131	0.0552365	-0.182167	0.0837459	0.369422	1.36004	0	0	0.0860286	-0.279426	0.360155	0.396994	1.23952	0	0
0.74	2.58067	1.4882	-0.990475	0.812947	0.0839986	1.00018	-0.190284	0.0412601	-0.324787	0.274096	0.241837	0	0	0.39919	-0.0973565	-0.204403	0.388565	0.017821	0	0	-0.346344	0.0141562	0.0546907	0.0552012	-0.182019	0.0835247	0.368004	1.36293	0	0	0.0844463	-0.279247	0.355852	0.398411	1.24282	0	0
0.75	2.62494	1.48946	-1.03874	0.812117	0.0926058	0.999222	-0.199708	0.0349644	-0.322488	0.276419	0.246765	0	0	0.391179	-0.0892585	-0.207856	0.358419	0.0219361	0	0	-0.346849	0.00920651	0.057081	0.0549432	-0.182099	0.0837794	0.366618	1.36456	0	0	0.0828807	-0.278628	0.351448	0.399145	1.24589	0	0
0.76	2.67106	1.48913	-1.08972	0.811241	0.101472	0.998275	-0.210505	0.0289032	-0.320191	0.278817	0.249475	0	0	0.381452	-0.0820835	-0.210677	0.331531	0.0297152	0	0	-0.348226	0.00477233	0.0604198	0.0542318	-0.1825	0.0848518	0.36526	1.36545	0	0	0.0810007	-0.277755	0.347138	0.399294	1.24923	0	0
0.77	2.71455	1.48805	-1.139	0.810409	0.110554	0.997256	-0.22035	0.0222411	-0.318967	0.283924	0.248893	0	0	0.371487	-0.0760037	-0.213936	0.308814	0.0366153	0	0	-0.349519	0.000428968	0.0646332	0.0528272	-0.183094	0.0868544	0.364203	1.36561	0	0	0.0788975	-0.276854	0.343186	0.398648	1.25306	0	0
0.78	2.75743	1.48622	-1.18811	0.809551	0.119798	0.99628	-0.230107	0.015496	-0.316597	0.290737	0.250281	0	0	0.361477	-0.0707773	-0.217222	0.290777	0.0379406	0	0	-0.351182	-0.00389722	0.0692161	0.0507741	-0.183795	0.0892262	0.363847	1.36491	0	0	0.0767238	-0.275815	0.339044	0.398126	1.25676	0	0
0.79	2.80176	1.48326	-1.23961	0.808695	0.129314	0.995372	-0.240872	0.0084905	-0.312074	0.298235	0.254058	0	0	0.350359	-0.0661942	-0.222997	0.276775	0.0367918	0	0	-0.353327	-0.00843309	0.0746278	0.0476877	-0.184565	0.0916806	0.364173	1.36348	0	0	0.0739077	-0.274699	0.334926	0.397853	1.26088	0	0
0.8	2.8437	1.48039	-1.28939	0.807877	0.138944	0.994444	-0.250312	0.000804747	-0.306119	0.307637	0.257516	0	0	0.340873	-0.0625827	-0.23006	0.269767	0.0319907	0	0	-0.354924	-0.013485	0.0805549	0.0438676	-0.185136	0.0938067	0.365122	1.36134	0	0	0.0705829	-0.273871	0.332455	0.397358	1.26651	0	0
0.81	2.89098	1.47665	-1.34544	0.807028	0.148713	0.993573	-0.259384	-0.00828378	-0.299769	0.319491	0.260872	0	0	0.331377	-0.0594826	-0.239322	0.269418	0.0254974	0	0	-0.356954	-0.0192795	0.0862362	0.0354639	-0.192819	0.142065	0.378905	1.29243	0	0	0.0666154	-0.271696	0.319953	0.395004	1.28939	0	0
0.82	2.90772	1.47432	-1.36997	0.806081	0.158795	0.992408	-0.265652	-0.0148753	-0.293161	0.332528	0.262757	0	0	0.326159	-0.0590728	-0.249527	0.277462	0.0234254	0	0	-0.355666	-0.0225706	0.0924603	0.0296014	-0.192702	0.138429	0.37971	1.29659	0	0	0.0610136	-0.270856	0.316356	0.395666	1.29338	0	0
0.83	2.92535	1.4721	-1.39642	0.805159	0.169118	0.991144	-0.270251	-0.0226542	-0.28582	0.34876	0.264629	0	0	0.321536	-0.0595113	-0.26099	0.291759	0.0203446	0	0	-0.35342	-0.0264963	0.099468	0.0224131	-0.192661	0.134288	0.381761	1.30071	0	0	0.0540634	-0.270247	0.311895	0.397427	1.29786	0	0
0.84	2.95208	1.47016	-1.4331	0.804257	0.179612	0.989852	-0.27302	-0.0324727	-0.276905	0.36825	0.266681	0	0	0.316673	-0.0595444	-0.27157	0.309053	0.0129373	0	0	-0.350347	-0.0320185	0.106925	0.0141607	-0.192575	0.1296	0.385101	1.30457	0	0	0.0461173	-0.269843	0.306682	0.399486	1.30289	0	0
0.85	2.98851	1.4686	-1.47923	0.803164	0.190055	0.988615	-0.273238	-0.0442079	-0.267682	0.391329	0.265995	0	0	0.312622	-0.0582676	-0.280172	0.327119	0.0019636	0	0	-0.347015	-0.0386424	0.113465	0.00569278	-0.192592	0.124309	0.389412	1.30793	0	0	0.0378968	-0.269379	0.30082	0.402095	1.30882	0	0
0.86	3.04705	1.466	-1.54579	0.80178	0.20033	0.987749	-0.272527	-0.0585066	-0.257987	0.417655	0.262968	0	0	0.309807	-0.0547863	-0.289585	0.347891	-0.00591517	0	0	-0.345657	-0.0473505	0.117419	-0.00187003	-0.192154	0.118213	0.393844	1.31132	0	0	0.0302475	-0.269378	0.294798	0.405431	1.31591	0	0
0.87	3.13296	1.46396	-1.63832	0.800336	0.210268	0.987293	-0.267041	-0.0759655	-0.246133	0.449828	0.258116	0	0	0.311662	-0.0494906	-0.297348	0.375532	-0.0061637	0	0	-0.344955	-0.0597652	0.119424	-0.00605148	-0.185641	0.0803004	0.391817	1.35988	0	0	0.0252424	-0.266969	0.269663	0.404651	1.35564	0	0
0.88	-3.06394	1.45939	-1.72835	0.798761	0.220075	0.987403	-0.261402	-0.0932199	-0.235155	0.484306	0.248445	0	0	0.313335	-0.0430966	-0.30006	0.406638	-0.000552566	0	0	-0.346468	-0.0724194	0.118486	-0.0134187	-0.186409	0.0947299	0.401085	1.33094	0	0	0.0191859	-0.270308	0.273971	0.411934	1.34525	0	0
0.89	-2.97726	1.45599	-1.81723	0.797092	0.229952	0.987653	-0.250703	-0.111283	-0.226094	0.523622	0.233907	0	0	0.315676	-0.0348979	-0.29745	0.434457	0.00422185	0	0	-0.345471	-0.0851609	0.117896	-0.0192415	-0.181363	0.0729931	0.402269	1.35493	0	0	0.0143093	-0.273664	0.280967	0.418233	1.33421	0	0
0.9	-2.88842	1.45598	-1.90757	0.79522	0.24001	0.987639	-0.23207	-0.130293	-0.219781	0.569041	0.214875	0	0	0.32049	-0.026436	-0.297693	0.45756	0.00651764	0	0	-0.338567	-0.0964554	0.117448	-0.0263035	-0.17713	0.0522293	0.403157	1.37675	0	0	0.0112476	-0.268746	0.247167	0.412136	1.38948	0	0
0.91	-2.82652	1.45602	-1.9697	0.793132	0.250158	0.987674	-0.212132	-0.146332	-0.215396	0.615879	0.189292	0	0	0.32186	-0.0201213	-0.300931	0.474707	0.0101711	0	0	-0.330749	-0.103567	0.117994	-0.0355901	-0.177033	0.0481447	0.407567	1.37319	0	0	0.00567903	-0.269332	0.247801	0.415585	1.38955	0	0
0.92	-2.79936	1.4563	-1.99803	0.79099	0.260211	0.987821	-0.190626	-0.158617	-0.209121	0.664105	0.156659	0	0	0.318525	-0.0168923	-0.304968	0.486357	0.0190512	0	0	-0.323762	-0.106122	0.120843	-0.0440736	-0.178874	0.0448725	0.411005	1.36979	0	0	0.000922325	-0.268499	0.248986	0.417825	1.38907	0	0
0.93	-2.92841	1.45158	-1.86834	0.788578	0.270007	0.989939	-0.181224	-0.159034	-0.218954	0.706738	0.108638	0	0	0.299701	-0.028301	-0.306377	0.492394	0.0316956	0	0	-0.330916	-0.0908263	0.12523	-0.0478314	-0.184552	0.0429002	0.411451	1.36653	0	0	-0.000120136	-0.263069	0.251947	0.417274	1.38671	0	0
0.94	-2.88156	1.45593	-1.91971	0.786605	0.279606	0.989796	-0.147442	-0.173281	-0.206264	0.76241	0.0698505	0	0	0.295834	-0.0227157	-0.312919	0.49496	0.044487	0	0	-0.319059	-0.0951568	0.129751	-0.0523982	-0.185735	0.0381448	0.408877	1.37185	0	0	-0.00459326	-0.26004	0.240041	0.416689	1.40776	0	0
0.95	-2.57562	1.47347	-2.23681	0.785434	0.288505	0.986438	-0.0755825	-0.199432	-0.166809	0.835771	0.0418771	0	0	0.321484	-0.00237161	-0.326437	0.50082	0.0553648	0	0	-0.277308	-0.120214	0.137645	-0.0594466	-0.183006	0.0436882	0.404477	1.36114	0	0	-0.0178734	-0.272012	0.270148	0.434602	1.3695	0	0
0.96	-2.70462	1.46671	-2.10888	0.783021	0.297449	0.989371	-0.0636684	-0.205484	-0.172232	0.879629	-0.0136737	0	0	0.295209	-0.00500981	-0.327385	0.496858	0.0619576	0	0	-0.29025	-0.110952	0.139379	-0.055451	-0.187104	0.0407625	0.398058	1.36856	0	0	-0.0139702	-0.262222	0.249946	0.424117	1.40375	0	0
0.97	-2.56766	1.46697	-2.24977	0.781089	0.306222	0.989191	-0.0139819	-0.240192	-0.179462	0.951717	-0.0632333	0	0	0.294202	0.0112453	-0.329992	0.496242	0.0683985	0	0	-0.277141	-0.12404	0.140476	-0.0562649	-0.186341	0.0427508	0.392929	1.3662	0	0	-0.0186306	-0.264987	0.25475	0.429185	1.39971	0	0
0.98	-2.45977	1.46738	-2.36151	0.779576	0.314497	0.989151	0.0271427	-0.252984	-0.158855	1.00392	-0.104915	0	0	0.294046	0.0232026	-0.329331	0.497213	0.0747472	0	0	-0.265596	-0.134207	0.142868	-0.0574007	-0.186141	0.0513051	0.391078	1.35134	0	0	-0.024382	-0.276022	0.298333	0.447121	1.33314	0	0
0.99	-2.73486	1.45925	-2.0872	0.776659	0.32175	0.994293	0.0220842	-0.233946	-0.148157	1.02697	-0.161333	0	0	0.255142	0.01143	-0.317253	0.487526	0.0763322	0	0	-0.297392	-0.110592	0.145866	-0.0483146	-0.195703	0.0513798	0.389382	1.35261	0	0	-0.0107841	-0.260227	0.288759	0.431431	1.34275	0	0
1	-2.32218	1.4677	-2.5036	0.776369	0.330462	0.989857	0.100171	-0.268981	-0.125616	1.09733	-0.184586	0	0	0.286606	0.0419583	-0.319242	0.492514	0.0861139	0	0	-0.250297	-0.144977	0.144843	-0.055638	-0.183069	0.0324564	0.3842	1.3779	0	0	-0.0244359	-0.275009	0.29223	0.447241	1.34637	0	0
1.01	-2.28482	1.45935	-2.53712	0.774381	0.337657	0.991632	0.124868	-0.28291	-0.118357	1.13551	-0.224734	0	0	0.271491	0.0570864	-0.318868	0.479889	0.0837436	0	0	-0.254666	-0.154397	0.137563	-0.0518426	-0.183558	0.0452525	0.384934	1.35782	0	0	-0.019086	-0.274276	0.289304	0.443913	1.3522	0	0
1.02	-2.32199	1.46584	-2.50095	0.77248	0.346291	0.99194	0.149405	-0.278412	-0.111238	1.17041	-0.256122	0	0	0.262714	0.0549473	-0.30753	0.480777	0.0959389	0	0	-0.249273	-0.144313	0.140119	-0.055243	-0.187728	0.0436095	0.386748	1.35912	0	0	-0.019841	-0.269225	0.291077	0.440201	1.35272	0	0
1.03	-2.2573	1.45944	-2.56099	0.770457	0.353144	0.993468	0.178253	-0.29183	-0.104125	1.20715	-0.274146	0	0	0.251887	0.069687	-0.309611	0.46849	0.0932722	0	0	-0.249514	-0.153644	0.133387	-0.0491307	-0.183799	0.026893	0.379901	1.3763	0	0	-0.0124959	-0.270506	0.308041	0.435596	1.33005	0	0
1.04	-2.23882	1.45983	-2.57624	0.768491	0.360681	0.994407	0.205065	-0.296801	-0.0998576	1.24181	-0.272005	0	0	0.242077	0.0752359	-0.307632	0.461839	0.0978822	0	0	-0.246637	-0.153053	0.129314	-0.0470483	-0.184536	0.025597	0.377797	1.37356	0	0	-0.0096173	-0.268597	0.313911	0.432421	1.32482	0	0
1.05	-2.08983	1.45734	-2.72088	0.767315	0.368486	0.993219	0.241637	-0.301604	-0.0818643	1.27492	-0.244697	0	0	0.245958	0.0889423	-0.309148	0.458104	0.105655	0	0	-0.228474	-0.164767	0.122846	-0.0481316	-0.180231	0.0255584	0.375688	1.37024	0	0	-0.0117785	-0.270702	0.3006	0.431477	1.35159	0	0
1.06	-2.30217	1.45959	-2.50188	0.76471	0.375424	0.997329	0.240232	-0.302774	-0.104044	1.29427	-0.24312	0	0	0.209614	0.0809956	-0.302047	0.443702	0.107334	0	0	-0.25394	-0.145474	0.117347	-0.0391327	-0.186519	0.0298271	0.371919	1.36683	0	0	-0.000529314	-0.26411	0.322573	0.424644	1.30949	0	0
1.07	-2.31705	1.4576	-2.48036	0.762801	0.383067	0.998648	0.255426	-0.320802	-0.124274	1.31438	-0.230141	0	0	0.192875	0.0865646	-0.299532	0.433379	0.111668	0	0	-0.256678	-0.144124	0.11008	-0.0319252	-0.1818	-0.00213384	0.359136	1.41594	0	0	0.00379012	-0.258728	0.302622	0.416209	1.34262	0	0
1.08	-2.32418	1.46147	-2.47052	0.761432	0.389804	0.999687	0.279403	-0.306049	-0.105202	1.33138	-0.217277	0	0	0.18318	0.0858982	-0.299306	0.426067	0.115584	0	0	-0.255784	-0.139757	0.10763	-0.0255452	-0.181398	-0.00574466	0.352343	1.41801	0	0	0.00782097	-0.258546	0.310693	0.416383	1.3321	0	0
